External Loads File
version=1
nRows=54
nColumns=13
Range=5.000000e-03-10 seconds
endheader
time 	forceRightX 	forceRightY 	forceRightZ 	pointRightX 	pointRightY 	pointRightZ 	forceLeftX 	forceLeftY 	forceLeftZ 	pointLeftX 	pointLeftY 	pointLeftZ 		
5.005000 -24.029034 -75.238111 -0.000000 0.179022 0.428610 -0.112336 27.540840 1155.948226 -0.000000 0.409843 0.220335 -0.362707
5.010000 -29.277219 -70.739778 -0.000000 0.186075 0.437585 -0.112744 41.392577 1189.393324 -0.000000 0.404081 0.211231 -0.362568
5.015000 -35.428729 -66.707391 -0.000000 0.193476 0.446139 -0.113194 56.910416 1219.281606 -0.000000 0.397916 0.202651 -0.362351
5.020000 -42.295905 -63.258726 -0.000000 0.201350 0.454222 -0.113603 75.250607 1244.087053 -0.000000 0.391297 0.194535 -0.362059
5.025000 -49.738277 -60.517321 -0.000000 0.209711 0.461759 -0.114047 96.709213 1262.157671 -0.000000 0.384155 0.187012 -0.361594
5.030000 -57.742209 -58.531253 -0.000000 0.218419 0.468761 -0.114489 121.811522 1271.995458 -0.000000 0.376278 0.180020 -0.360184
5.035000 -66.215942 -57.406784 -0.000000 0.227392 0.475235 -0.114991 147.521773 1272.753003 -0.000000 0.368410 0.173402 -0.360204
5.040000 -75.259353 -56.957848 -0.000000 0.236800 0.481347 -0.115254 174.301360 1263.583953 -0.000000 0.360354 0.167264 -0.360312
5.045000 -84.752049 -57.059725 -0.000000 0.245829 0.486631 -0.116122 198.590569 1244.502562 -0.000000 0.351776 0.161846 -0.360583
5.050000 -94.766594 -57.064642 -0.000000 0.255684 0.491399 -0.116201 222.968897 1215.072088 -0.000000 0.343037 0.157079 -0.360869
5.055000 -105.007576 -56.668033 -0.000000 0.265697 0.495201 -0.116455 243.785427 1176.281815 -0.000000 0.334203 0.152829 -0.360979
5.060000 -115.351025 -55.242265 -0.000000 0.276143 0.498438 -0.116764 262.028073 1128.716323 -0.000000 0.325110 0.149108 -0.361284
5.065000 -125.375633 -52.798612 -0.000000 0.286092 0.501039 -0.116936 273.428043 1074.460241 -0.000000 0.315956 0.146054 -0.361708
5.070000 -134.952056 -48.763064 -0.000000 0.296579 0.502883 -0.117222 281.181884 1014.090590 -0.000000 0.306696 0.143584 -0.362267
5.075000 -143.627041 -43.326650 -0.000000 0.307011 0.503932 -0.117357 283.193714 949.570120 -0.000000 0.297469 0.141744 -0.362802
5.080000 -151.051656 -36.575823 -0.000000 0.317389 0.504248 -0.117449 279.918823 882.267233 -0.000000 0.288291 0.140503 -0.363508
5.085000 -156.892157 -28.696854 -0.000000 0.327629 0.503894 -0.117486 271.915512 813.471129 -0.000000 0.279154 0.139972 -0.364130
5.090000 -160.880912 -19.854878 -0.000000 0.337641 0.503052 -0.117510 260.084498 744.250613 -0.000000 0.269978 0.140249 -0.364786
5.095000 -162.864460 -10.155733 -0.000000 0.347512 0.501458 -0.117800 245.428811 675.483445 -0.000000 0.260872 0.141018 -0.365203
5.100000 -162.831048 0.346269 -0.000000 0.356899 0.499305 -0.117605 228.743987 607.930763 -0.000000 0.251874 0.143187 -0.365585
5.105000 -160.912016 11.896049 -0.000000 0.365974 0.496379 -0.117545 211.327498 541.919730 -0.000000 0.242992 0.146059 -0.365779
5.110000 -157.353686 24.874575 -0.000000 0.374723 0.492909 -0.117361 194.095163 477.622677 -0.000000 0.234215 0.149872 -0.366061
5.115000 -152.518195 39.791518 -0.000000 0.382912 0.488706 -0.117122 177.588974 415.058494 -0.000000 0.225488 0.154636 -0.365990
5.120000 -146.880227 57.216966 -0.000000 0.390571 0.484013 -0.116755 161.860464 354.189200 -0.000000 0.217033 0.160375 -0.366601
5.125000 -140.829210 78.091574 -0.000000 0.397744 0.478195 -0.116391 147.313467 294.629421 -0.000000 0.208709 0.167035 -0.366251
5.130000 -134.821010 102.997283 -0.000000 0.404342 0.471782 -0.115955 133.159890 236.532248 -0.000000 0.200633 0.174649 -0.365627
5.135000 -129.199645 132.513158 -0.000000 0.410463 0.464613 -0.115389 118.861226 180.273203 -0.000000 0.193044 0.182927 -0.364782
5.140000 -124.122545 167.073225 -0.000000 0.415911 0.456534 -0.114865 104.164690 126.564256 -0.000000 0.185942 0.191840 -0.363846
5.145000 -119.551951 206.815110 -0.000000 0.421013 0.447924 -0.114059 89.033761 76.276216 -0.000000 0.179380 0.201304 -0.362691
5.150000 -115.308880 251.474625 -0.000000 0.425475 0.438724 -0.113319 73.563867 30.209116 -0.000000 0.173247 0.211249 -0.361674
5.155000 -111.056630 300.425438 -0.000000 0.429247 0.429113 -0.112918 57.966441 -11.000550 -0.000000 0.167648 0.221844 -0.360909
5.160000 -106.666006 352.678965 -0.000000 0.432530 0.419277 -0.113017 42.552446 -46.799339 -0.000000 0.162556 0.232678 -0.359647
5.165000 -101.783310 407.266532 -0.000000 0.435325 0.409121 -0.112695 27.691696 -76.801057 -0.000000 0.158095 0.243859 -0.358707
5.170000 -96.343733 463.278180 -0.000000 0.437629 0.398597 -0.112344 13.780931 -100.671622 -0.000000 0.154219 0.255137 -0.357765
5.175000 -89.900695 520.165793 -0.000000 0.439477 0.387638 -0.111841 1.129649 -118.173111 -0.000000 0.150879 0.266579 -0.357010
5.180000 -83.111810 577.416985 -0.000000 0.440822 0.376504 -0.111283 -9.645352 -129.231090 -0.000000 0.148217 0.277941 -0.356485
5.185000 -76.064753 634.748069 -0.000000 0.441795 0.365144 -0.110855 -17.995351 -134.163674 -0.000000 0.146315 0.289045 -0.356089
5.190000 -69.360835 691.801295 -0.000000 0.442298 0.354074 -0.111195 -23.345451 -133.793239 -0.000000 0.145201 0.300101 -0.355826
5.195000 -62.267352 748.328068 -0.000000 0.442456 0.342937 -0.111738 -25.602451 -129.352772 -0.000000 0.144684 0.311001 -0.355877
5.200000 -53.284568 804.051338 -0.000000 0.442173 0.331421 -0.111896 -25.023206 -122.298831 -0.000000 0.144745 0.321930 -0.355817
5.205000 -43.451746 858.435647 -0.000000 0.441307 0.320030 -0.111209 -21.724309 -114.156022 -0.000000 0.145354 0.332836 -0.355943
5.210000 -29.052882 911.118731 -0.000000 0.439934 0.308210 -0.111446 -16.719341 -106.096830 -0.000000 0.146753 0.344235 -0.356279
5.215000 -16.310107 961.294026 -0.000000 0.438281 0.296856 -0.112629 -9.955449 -99.159071 -0.000000 0.148751 0.354890 -0.356471
5.220000 -0.670743 1008.583008 -0.000000 0.436056 0.285642 -0.112755 -2.738085 -93.770564 -0.000000 0.151334 0.365856 -0.356551
5.225000 17.308139 1052.430105 -0.000000 0.433230 0.274421 -0.112777 4.341722 -90.125267 -0.000000 0.154484 0.376734 -0.356851
5.230000 35.730980 1092.402971 -0.000000 0.429932 0.263627 -0.112914 10.939264 -88.157425 -0.000000 0.158216 0.387409 -0.357072
5.235000 55.600964 1128.131757 -0.000000 0.426032 0.253102 -0.112777 16.613166 -87.704397 -0.000000 0.162564 0.397937 -0.357058
5.240000 76.209399 1159.369892 -0.000000 0.421609 0.242916 -0.112585 21.164600 -88.568537 -0.000000 0.167515 0.408189 -0.357121
5.245000 96.652891 1185.936098 -0.000000 0.416700 0.233136 -0.112446 24.451873 -90.528979 -0.000000 0.172925 0.418047 -0.357186
5.250000 118.048665 1207.455173 -0.000000 0.411284 0.223810 -0.112381 26.215275 -93.354626 -0.000000 0.178919 0.427783 -0.357084
5.255000 139.660460 1223.636558 -0.000000 0.405162 0.214896 -0.111988 26.389464 -96.666413 -0.000000 0.185429 0.436904 -0.357169
5.260000 160.193931 1234.271371 -0.000000 0.399126 0.206342 -0.112032 25.019555 -99.945464 -0.000000 0.192370 0.445719 -0.357092
5.265000 180.340496 1238.919766 -0.000000 0.392281 0.198411 -0.112048 22.047592 -102.631853 -0.000000 0.199731 0.453671 -0.357113
5.270000 200.926255 1237.065867 -0.000000 0.385063 0.191065 -0.112074 17.450669 -104.123810 -0.000000 0.207575 0.461399 -0.356962
